# xmcd
#
# Track frame offsets: 
#        150
#        14019
#        30111
#        43573
#        56264
#        69197
#        84937
#        99315
#        112876
#        132328
#        143939
#        159420
#        176040
#
# Disc length: 2613 seconds
#
# Revision: 1
# Processed by: cddbd v1.5.2PL0 Copyright (c) Steve Scherf et al.
# Submitted via: ExactAudioCopyFreeDBPlugin 1.0
#
DISCID=980a330d
DTITLE=Various Artist - My Kinda Christmas
DYEAR=2007
DGENRE=Christmas/Holiday
TTITLE0=Daryle Singletary - Swingin' Into Christmas
TTITLE1=T.G. Sheppard - My Kinda Christmas
TTITLE2=Juice Newton - Sleigh Ride
TTITLE3=Johnny Lee - Santa's Got His Groove On
TTITLE4=Cook and Glenn - Reggae Santa
TTITLE5=Tom Wopat - Away In A Manger
TTITLE6=Rebecca Lynn Howard - Jingle My Bells
TTITLE7=Roy Clark - Let It Snow
TTITLE8=Brooke Morton - I'll Just Bring Christmas To You
TTITLE9=Paul Overstreet - How Do I Wrap My Heart Up For Christmas
TTITLE10=John Ford Coley - Angels From The Realms Of Glory-Silent Nigh
TTITLE10=t
TTITLE11=Moe Bandy - Red, White and Blue Christmas
TTITLE12=Collin Raye - O Holy Night
EXTD=
EXTT0=
EXTT1=
EXTT2=
EXTT3=
EXTT4=
EXTT5=
EXTT6=
EXTT7=
EXTT8=
EXTT9=
EXTT10=
EXTT11=
EXTT12=
PLAYORDER=
